<svg width="24" height="24" viewBox="0 0 24 24" fill="none" xmlns="http://www.w3.org/2000/svg">
    <path fill-rule="evenodd" clip-rule="evenodd" d="M18.4019 18.9037C18.3322 18.9736 18.2495 19.029 18.1584 19.0668C18.0672 19.1046 17.9696 19.1241 17.8709 19.1241C17.7723 19.1241 17.6746 19.1046 17.5835 19.0668C17.4923 19.029 17.4096 18.9736 17.3399 18.9037L11.2496 12.8119L5.15927 18.9037C5.01844 19.0446 4.82744 19.1237 4.62827 19.1237C4.42911 19.1237 4.2381 19.0446 4.09727 18.9037C3.95644 18.7629 3.87733 18.5719 3.87733 18.3727C3.87733 18.1736 3.95644 17.9826 4.09727 17.8417L10.7186 11.2204C10.7883 11.1506 10.871 11.0952 10.9621 11.0574C11.0533 11.0195 11.1509 11.0001 11.2496 11.0001C11.3482 11.0001 11.4459 11.0195 11.537 11.0574C11.6282 11.0952 11.7109 11.1506 11.7806 11.2204L18.4019 17.8417C18.4718 17.9114 18.5272 17.9942 18.565 18.0853C18.6028 18.1764 18.6223 18.2741 18.6223 18.3727C18.6223 18.4714 18.6028 18.5691 18.565 18.6602C18.5272 18.7513 18.4718 18.8341 18.4019 18.9037Z" fill="#3C3C3C"/>
    <path fill-rule="evenodd" clip-rule="evenodd" d="M4.09766 4.22034C4.16733 4.1505 4.25009 4.09508 4.34121 4.05727C4.43233 4.01946 4.53001 4 4.62866 4C4.72731 4 4.82499 4.01946 4.91611 4.05727C5.00723 4.09508 5.08999 4.1505 5.15966 4.22034L11.25 10.3122L17.3403 4.22034C17.4811 4.07951 17.6721 4.00039 17.8713 4.00039C18.0705 4.00039 18.2615 4.07951 18.4023 4.22034C18.5431 4.36117 18.6222 4.55218 18.6222 4.75134C18.6222 4.9505 18.5431 5.14151 18.4023 5.28234L11.781 11.9037C11.7113 11.9735 11.6285 12.0289 11.5374 12.0667C11.4463 12.1045 11.3486 12.124 11.25 12.124C11.1513 12.124 11.0536 12.1045 10.9625 12.0667C10.8714 12.0289 10.7886 11.9735 10.719 11.9037L4.09766 5.28234C4.02781 5.21267 3.9724 5.12991 3.93459 5.03879C3.89678 4.94767 3.87732 4.84999 3.87732 4.75134C3.87732 4.65269 3.89678 4.55501 3.93459 4.46389C3.9724 4.37277 4.02781 4.29001 4.09766 4.22034Z" fill="#3C3C3C"/>
</svg>