<svg width="30" height="32" viewBox="0 0 30 32" fill="none" xmlns="http://www.w3.org/2000/svg">
<path fill-rule="evenodd" clip-rule="evenodd" d="M14.1806 14.6379C14.5098 14.3631 14.7073 14.1286 14.7073 13.7513C14.7073 13.303 14.3593 13.0281 13.936 13.0281C13.513 13.0281 13.2121 13.2828 13.2121 13.7617C13.2121 14.1695 13.466 14.465 13.6917 14.699L13.8703 14.8827L14.1806 14.6379ZM15.2622 17.9091L13.6352 16.0851L13.3626 16.2787C12.9583 16.5743 12.7607 16.9412 12.7607 17.3998C12.7607 18.1333 13.2592 18.5205 13.9738 18.5205C14.4816 18.5205 14.9144 18.3165 15.2622 17.9091ZM16.6824 15.8917C16.994 15.8917 17.2345 16.1937 17.1517 16.5193C17.024 17.0217 16.8299 17.4939 16.5696 17.8989L17.0828 18.4658C17.2615 18.6631 17.2612 18.9792 17.0823 19.1761C16.899 19.3779 16.5988 19.3778 16.4156 19.176L15.927 18.6379L15.8076 18.755C15.2717 19.2442 14.6227 19.5092 13.936 19.5092C12.6288 19.5092 11.7073 18.7855 11.7073 17.4305C11.7073 16.4315 12.2997 15.8611 12.8641 15.4636L12.9882 15.3782L12.8641 15.2192C12.4596 14.6991 12.234 14.3528 12.234 13.7415C12.234 12.7938 12.8922 12.1006 13.9078 12.1006C14.9143 12.1006 15.6854 12.712 15.6854 13.7207C15.6854 14.5055 15.1869 14.9641 14.4345 15.535L15.864 17.1349C15.9926 16.9028 16.0893 16.6316 16.1593 16.3498C16.2242 16.0889 16.4329 15.8917 16.6824 15.8917Z" fill="#E73C3E"/>
<path fill-rule="evenodd" clip-rule="evenodd" d="M0.229556 1.72866C0.229556 0.773947 0.948984 0 1.83644 0H6.42755C7.18823 0 7.80488 0.663384 7.80488 1.48171C7.80488 2.30003 7.18823 2.96342 6.42755 2.96342H3.67289C3.29255 2.96342 2.98422 3.29511 2.98422 3.70427V5.43238C2.98422 5.84154 3.29255 6.17323 3.67289 6.17323H6.1112C6.74524 6.17323 7.25924 6.72618 7.25924 7.40827C7.25924 8.09036 6.74524 8.6433 6.1112 8.6433H3.67288C3.29255 8.6433 2.98422 8.97499 2.98422 9.38416L2.98422 12.8415C2.98422 13.6598 2.36757 14.3232 1.60689 14.3232C0.846208 14.3232 0.229555 13.6598 0.229555 12.8415L0.229556 1.72866Z" fill="#E73C3E"/>
<path fill-rule="evenodd" clip-rule="evenodd" d="M10.7891 0C11.5498 0 12.1664 0.663384 12.1664 1.48171V5.43293C12.1664 6.52403 12.8551 7.65549 14.0029 7.65549C15.1506 7.65549 15.8393 6.52403 15.8393 5.43293V1.48171C15.8393 0.663384 16.456 0 17.2166 0C17.9773 0 18.594 0.663384 18.594 1.48171V5.43293C18.594 8.16068 16.5385 10.125 14.0029 10.125C11.4673 10.125 9.41175 8.16068 9.41175 5.43293V1.48171C9.41175 0.663383 10.0284 0 10.7891 0Z" fill="#E73C3E"/>
<path fill-rule="evenodd" clip-rule="evenodd" d="M20.2009 1.48171C20.2009 0.663384 20.8175 0 21.5782 0H21.61C22.1067 0 22.5649 0.287697 22.8092 0.752934L26.6283 8.02592C26.6283 8.02592 26.6284 4.32295 26.6284 1.4815C26.6284 0.663176 27.2451 0 28.0057 0C28.7664 0 29.3831 0.663384 29.3831 1.48171V12.8415C29.3831 13.6598 28.7664 14.3232 28.0057 14.3232H27.9737C27.477 14.3232 27.0188 14.0355 26.7745 13.5702L22.9554 6.29726C22.9554 6.29726 22.9555 9.89259 22.9555 12.8419C22.9555 13.6602 22.3389 14.3232 21.5782 14.3232C20.8175 14.3232 20.2009 13.6598 20.2009 12.8415V1.48171Z" fill="#E73C3E"/>
<path fill-rule="evenodd" clip-rule="evenodd" d="M20.2009 18.7683C20.2009 17.95 20.8175 17.2866 21.5782 17.2866H21.61C22.1067 17.2866 22.5649 17.5743 22.8092 18.0395L26.6283 25.3125C26.6283 25.3125 26.6284 21.6096 26.6284 18.7681C26.6284 17.9498 27.2451 17.2866 28.0057 17.2866C28.7664 17.2866 29.3831 17.95 29.3831 18.7683V30.1281C29.3831 30.9464 28.7664 31.6098 28.0057 31.6098H27.9737C27.477 31.6098 27.0188 31.3221 26.7745 30.8568L22.9554 23.5839C22.9554 23.5839 22.9555 27.1792 22.9555 30.1285C22.9555 30.9468 22.3389 31.6098 21.5782 31.6098C20.8175 31.6098 20.2009 30.9464 20.2009 30.1281V18.7683Z" fill="#E73C3E"/>
<path fill-rule="evenodd" clip-rule="evenodd" d="M10.7897 21.4848C11.5503 21.4848 12.167 22.1482 12.167 22.9665V26.9177C12.167 28.0088 12.8557 29.1403 14.0034 29.1403C15.1512 29.1403 15.8399 28.0088 15.8399 26.9177V22.9665C15.8399 22.1482 16.4565 21.4848 17.2172 21.4848C17.9779 21.4848 18.5945 22.1482 18.5945 22.9665V26.9177C18.5945 29.6455 16.539 31.6098 14.0034 31.6098C11.4678 31.6098 9.41233 29.6455 9.41233 26.9177V22.9665C9.41233 22.1482 10.029 21.4848 10.7897 21.4848Z" fill="#E73C3E"/>
<path d="M8.26399 27.5501C8.26399 28.808 7.85065 29.7991 7.02396 30.5234C6.20305 31.2477 5.05841 31.6098 3.59002 31.6098C2.51702 31.6098 1.54221 31.4339 0.665615 31.0822C0.248732 30.9149 0 30.4688 0 29.9901C0 29.071 0.881932 28.4689 1.69289 28.7582C1.8598 28.8178 2.01813 28.8693 2.16789 28.9129C2.76333 29.0844 3.20859 29.1211 3.69998 29.1211C4.28965 29.1211 4.74057 28.9972 5.05274 28.7495C5.3707 28.5017 5.52968 28.1332 5.52968 27.644C5.52968 27.3708 5.46031 27.1294 5.32156 26.9198C5.18282 26.7038 4.97759 26.4973 4.70588 26.3003C4.43996 26.1034 3.9918 25.8379 3.16512 25.4059C2.39046 25.0057 1.80946 24.6213 1.42213 24.2528C1.03481 23.8844 0.72552 23.4555 0.494279 22.9663C0.263037 22.4771 0.147416 21.9053 0.147416 21.251C0.147416 20.0185 0.526074 19.0496 1.28339 18.3444C2.04649 17.6392 3.09864 17.2866 4.43984 17.2866C5.09887 17.2866 5.72612 17.3724 6.32156 17.5439C6.59416 17.6217 6.8721 17.7138 7.1554 17.8203C7.7487 18.0434 8.01538 18.7659 7.77886 19.3923C7.53514 20.0378 6.85133 20.3347 6.23733 20.1132C6.02469 20.0364 5.8302 19.9742 5.65385 19.9263C5.21449 19.8056 4.90412 19.7561 4.47633 19.7561C3.9676 19.7561 3.57738 19.8864 3.30567 20.1468C3.03396 20.4073 2.89811 20.7472 2.89811 21.1665C2.89811 21.427 2.95303 21.6557 3.06286 21.8527C3.1727 22.0433 3.34614 22.2307 3.58316 22.4149C3.82596 22.5928 4.27219 22.906 5.16825 23.3761C6.35336 23.9987 7.16559 24.6245 7.60495 25.2535C8.04431 25.8761 8.26399 26.6416 8.26399 27.5501Z" fill="#E73C3E"/>
</svg>
