<svg width="24" height="24" viewBox="0 0 24 24" fill="none" xmlns="http://www.w3.org/2000/svg">
    <path fill-rule="evenodd" clip-rule="evenodd" d="M16.9395 1.93948C17.2208 1.65828 17.6022 1.50031 18 1.50031C18.3977 1.50031 18.7792 1.65828 19.0605 1.93948L22.0605 4.93948C22.3417 5.22078 22.4997 5.60224 22.4997 5.99998C22.4997 6.39773 22.3417 6.77919 22.0605 7.06048L8.5605 20.5605C8.39628 20.7252 8.196 20.8495 7.9755 20.9235L3.4755 22.4235C3.21112 22.512 2.9273 22.5251 2.6559 22.4613C2.38449 22.3974 2.13625 22.2592 1.93903 22.0622C1.7418 21.8651 1.60341 21.617 1.53937 21.3456C1.47533 21.0743 1.48819 20.7904 1.5765 20.526L3.0765 16.026C3.1503 15.8049 3.27458 15.6041 3.4395 15.4395L16.9395 1.93948ZM18 2.99998L21 5.99998L7.5 19.5L3 21L4.5 16.5L18 2.99998Z" fill="#fff"/>
    <path fill-rule="evenodd" clip-rule="evenodd" d="M18.219 9.53099L14.469 5.78099L15.531 4.71899L19.281 8.46899L18.2205 9.53099H18.219ZM4.5 15V15.75C4.5 15.9489 4.57902 16.1397 4.71967 16.2803C4.86032 16.421 5.05109 16.5 5.25 16.5H6V17.25C6 17.4489 6.07902 17.6397 6.21967 17.7803C6.36032 17.921 6.55109 18 6.75 18H7.5V18.75C7.5 18.9489 7.57902 19.1397 7.71967 19.2803C7.86032 19.421 8.05109 19.5 8.25 19.5H9V17.25C9 17.0511 8.92098 16.8603 8.78033 16.7197C8.63968 16.579 8.44891 16.5 8.25 16.5H7.5V15.75C7.5 15.5511 7.42098 15.3603 7.28033 15.2197C7.13968 15.079 6.94891 15 6.75 15H4.5Z" fill="#fff"/>
</svg>